<svg enable-background="new 0 0 32 32" viewBox="0 0 32 32" xmlns="http://www.w3.org/2000/svg"><path d="m28 30.426h-24c-1.337 0-2.425-1.089-2.425-2.426v-24c0-1.337 1.088-2.425 2.425-2.425h24c1.337 0 2.426 1.088 2.426 2.425v24c0 1.337-1.089 2.426-2.426 2.426zm-11.575-.852h11.575c.868 0 1.574-.706 1.574-1.574v-2.574h-4.574c-.113 0-.221-.045-.301-.125l-3.875-3.875h-4.399zm-14-4.148v2.574c0 .868.707 1.574 1.575 1.574h11.575v-8.148h-4.398l-3.875 3.875c-.08.08-.188.125-.301.125zm22.751-.852h4.398v-8.149h-8.148v4.399zm-22.751 0h4.398l3.751-3.75v-4.399h-8.149zm9-4h9.149v-9.149h-9.149zm10.001-4.999h8.148v-8.15h-4.398l-3.75 3.751zm-19.001 0h8.149v-4.398l-3.75-3.752h-4.399zm14-5h4.399l3.875-3.875c.08-.08.188-.125.301-.125h4.574v-2.575c0-.868-.706-1.575-1.574-1.575h-11.575zm-5.249 0h4.398v-8.15h-11.574c-.868 0-1.575.707-1.575 1.575v2.575h4.575c.113 0 .221.044.301.125z"/><path d="m0 0h32v32h-32z" fill="none"/></svg>